<svg width="133" height="50" viewBox="0 0 133 50" fill="none" xmlns="http://www.w3.org/2000/svg">
<path d="M28.816 8.988H9.72V16.828H24.952V24.276H9.72V38.5H0.0880004V1.54H28.816V8.988ZM64.3677 38.5H54.4557L51.8797 30.156H39.2237L36.5917 38.5H26.9037L39.8957 1.54H51.4317L64.3677 38.5ZM41.0157 23.604H50.0877L45.5517 8.652L41.0157 23.604ZM93.2269 49.868C90.7629 49.868 88.5976 49.4573 86.7309 48.636C84.8643 47.8147 83.4083 46.62 82.3629 45.052C81.3176 43.484 80.7949 41.5427 80.7949 39.228C80.7949 38.4813 80.8883 37.6973 81.0749 36.876C81.2989 36.0547 81.6349 35.252 82.0829 34.468L87.6829 33.18C87.3096 34.0013 87.0296 34.748 86.8429 35.42C86.6563 36.092 86.5629 36.708 86.5629 37.268C86.5629 38.724 86.8616 39.844 87.4589 40.628C88.0563 41.4493 88.8589 42.0093 89.8669 42.308C90.8749 42.644 92.0136 42.812 93.2829 42.812C94.8883 42.812 96.2323 42.644 97.3149 42.308C98.4349 41.972 99.3496 41.5053 100.059 40.908L101.515 47.572C100.544 48.3187 99.2936 48.8787 97.7629 49.252C96.2323 49.6627 94.7203 49.868 93.2269 49.868ZM83.8749 0.979999C87.6083 0.979999 90.8189 1.74533 93.5069 3.276C96.2323 4.76933 98.3229 6.93466 99.7789 9.772C101.235 12.6093 101.963 16.0253 101.963 20.02C101.963 24.0147 101.235 27.4307 99.7789 30.268C98.3229 33.1053 96.2323 35.2893 93.5069 36.82C90.8189 38.3133 87.6083 39.06 83.8749 39.06C80.1416 39.06 76.9123 38.3133 74.1869 36.82C71.4616 35.2893 69.3709 33.1053 67.9149 30.268C66.4589 27.4307 65.7309 24.0147 65.7309 20.02C65.7309 16.0253 66.4589 12.6093 67.9149 9.772C69.3709 6.93466 71.4616 4.76933 74.1869 3.276C76.9123 1.74533 80.1416 0.979999 83.8749 0.979999ZM83.8749 8.54C82.0829 8.54 80.5709 8.96933 79.3389 9.828C78.1069 10.6867 77.1736 11.9747 76.5389 13.692C75.9043 15.372 75.5869 17.4813 75.5869 20.02C75.5869 22.5213 75.9043 24.6307 76.5389 26.348C77.1736 28.0653 78.1069 29.3533 79.3389 30.212C80.5709 31.0707 82.0829 31.5 83.8749 31.5C85.6669 31.5 87.1603 31.0707 88.3549 30.212C89.5869 29.3533 90.5203 28.0653 91.1549 26.348C91.7896 24.6307 92.1069 22.5213 92.1069 20.02C92.1069 17.4813 91.7896 15.372 91.1549 13.692C90.5203 11.9747 89.5869 10.6867 88.3549 9.828C87.1603 8.96933 85.6669 8.54 83.8749 8.54ZM119.676 39.06C116.876 39.06 114.263 38.612 111.836 37.716C109.447 36.7827 107.468 35.4573 105.9 33.74L110.38 28.476C111.313 29.6707 112.545 30.6787 114.076 31.5C115.644 32.284 117.38 32.676 119.284 32.676C120.441 32.676 121.393 32.508 122.14 32.172C122.887 31.836 123.26 31.3133 123.26 30.604C123.26 30.0813 123.073 29.6707 122.7 29.372C122.327 29.036 121.58 28.756 120.46 28.532L116.54 27.748C113.031 27.0387 110.529 25.9933 109.036 24.612C107.58 23.1933 106.852 21.3453 106.852 19.068C106.852 17.5373 107.319 16.0813 108.252 14.7C109.185 13.2813 110.623 12.1427 112.564 11.284C114.505 10.388 116.988 9.94 120.012 9.94C122.849 9.94 125.351 10.3507 127.516 11.172C129.681 11.9933 131.399 13.188 132.668 14.756L128.132 19.908C127.236 18.788 126.079 17.9107 124.66 17.276C123.241 16.6413 121.823 16.324 120.404 16.324C119.508 16.324 118.743 16.4173 118.108 16.604C117.511 16.7533 117.063 16.9773 116.764 17.276C116.465 17.5747 116.316 17.948 116.316 18.396C116.316 18.8813 116.54 19.3107 116.988 19.684C117.473 20.02 118.351 20.3187 119.62 20.58L124.716 21.588C127.591 22.1107 129.663 23.0627 130.932 24.444C132.201 25.8253 132.836 27.4867 132.836 29.428C132.836 31.2573 132.351 32.9 131.38 34.356C130.409 35.812 128.953 36.9693 127.012 37.828C125.071 38.6493 122.625 39.06 119.676 39.06Z" fill="#301534"/>
</svg>
